<svg width="43" height="43" viewBox="0 0 43 43" fill="none" xmlns="http://www.w3.org/2000/svg">
<circle cx="21.5" cy="21.5" r="21.5" fill="#300759"/>
<path d="M31.321 25.2862C31.1496 25.286 30.9819 25.2364 30.838 25.1433L26.8566 22.5808L22.8761 25.1451C22.7248 25.243 22.5475 25.2928 22.3674 25.288C22.1873 25.2832 22.0128 25.224 21.867 25.1183C21.7211 25.0125 21.6107 24.8651 21.5501 24.6954C21.4896 24.5257 21.4818 24.3416 21.5279 24.1674L22.7332 19.5851L19.9903 16.9734C19.8686 16.8577 19.782 16.7099 19.7405 16.5472C19.699 16.3844 19.7042 16.2132 19.7556 16.0533C19.8069 15.8934 19.9024 15.7512 20.0309 15.6431C20.1595 15.535 20.3159 15.4653 20.4823 15.4421L24.3887 14.8957L26.0548 11.4991C26.1276 11.3509 26.2401 11.2258 26.3798 11.1377C26.5194 11.0496 26.6808 11.0019 26.8459 11C27.0107 10.9997 27.1725 11.0442 27.3139 11.1289C27.4553 11.2135 27.571 11.335 27.6486 11.4804L29.4281 14.8957L33.2336 15.443C33.3996 15.4668 33.5555 15.5368 33.6835 15.645C33.8115 15.7532 33.9065 15.8953 33.9576 16.055C34.0086 16.2147 34.0137 16.3855 33.9722 16.5479C33.9307 16.7103 33.8443 16.8578 33.7229 16.9734L30.98 19.5842L32.1854 24.1665C32.2201 24.2987 32.224 24.437 32.1968 24.571C32.1696 24.7049 32.1121 24.8308 32.0286 24.9389C31.9451 25.0471 31.8379 25.1346 31.7152 25.1948C31.5925 25.2551 31.4577 25.2863 31.321 25.2862ZM26.8566 20.6253C27.0279 20.6253 27.1956 20.6746 27.3397 20.7673L29.8728 22.3986L29.1183 19.528C29.0775 19.3735 29.079 19.2109 29.1225 19.0571C29.166 18.9033 29.2499 18.7641 29.3656 18.6538L31.1585 16.9484L28.721 16.5975C28.5809 16.5773 28.4476 16.5242 28.3321 16.4424C28.2165 16.3605 28.1222 16.2524 28.0566 16.127L26.8807 13.8706L25.7825 16.1073C25.7183 16.2382 25.6231 16.3514 25.5051 16.437C25.3871 16.5226 25.25 16.578 25.1057 16.5984L22.5618 16.9547L24.3476 18.6538C24.4634 18.764 24.5476 18.9032 24.5912 19.057C24.6349 19.2107 24.6365 19.3734 24.5958 19.528L23.8404 22.3986L26.3736 20.7673C26.5175 20.6743 26.6852 20.6247 26.8566 20.6244V20.6253Z" fill="white"/>
<path d="M21.3359 36.0008C18.6059 36.0012 15.9529 35.0958 13.7927 33.4266C11.6324 31.7574 10.087 29.4186 9.39861 26.7768C8.71019 24.135 8.91766 21.3395 9.98851 18.8283C11.0594 16.3171 12.9331 14.2321 15.3161 12.9C15.4857 12.8049 15.6818 12.7678 15.8745 12.7944C16.0672 12.8209 16.2459 12.9096 16.3836 13.0471C16.5212 13.1845 16.6102 13.3631 16.637 13.5558C16.6639 13.7484 16.627 13.9446 16.5322 14.1144C15.4091 16.119 14.9715 18.4356 15.286 20.7117C15.6005 22.9879 16.6498 25.099 18.2744 26.724C19.899 28.3489 22.0098 29.3988 24.2859 29.7139C26.562 30.0289 28.8787 29.5919 30.8836 28.4693C31.0532 28.3742 31.2493 28.3371 31.442 28.3636C31.6347 28.3902 31.8134 28.4789 31.9511 28.6164C32.0887 28.7538 32.1777 28.9324 32.2045 29.1251C32.2313 29.3177 32.1945 29.5138 32.0997 29.6837C31.0275 31.5971 29.4654 33.1906 27.5738 34.3008C25.6822 35.411 23.5292 35.9977 21.3359 36.0008ZM13.7553 16.3332C11.8265 18.3205 10.7569 20.9868 10.7775 23.7562C10.7982 26.5256 11.9075 29.1756 13.8658 31.1339C15.8241 33.0922 18.4741 34.2015 21.2435 34.2222C24.0129 34.2429 26.6792 33.1733 28.6665 31.2444C26.6078 31.7492 24.4537 31.7146 22.4122 31.1442C20.3708 30.5737 18.5108 29.4866 17.012 27.9877C15.5131 26.4889 14.426 24.629 13.8555 22.5875C13.2851 20.546 13.2505 18.3919 13.7553 16.3332Z" fill="white"/>
</svg>
