<svg width="26" height="26" viewBox="0 0 26 26" fill="none" xmlns="http://www.w3.org/2000/svg">
<path d="M0 26H26L23.8424 4.41079C23.8264 2.59837 23.8632 1.59467 23.8632 1.59467C23.527 1.72413 23.0265 1.77396 22.4272 1.77396C22.3258 1.77396 22.2196 1.77179 22.1117 1.76908C22.1095 0.637542 22.1286 0 22.1286 0C21.6082 0.855833 20.4971 1.07358 19.2305 1.07358C17.9153 1.07358 16.4329 0.839042 15.2681 0.839042C13.471 0.839042 13.0871 2.34217 13.0039 2.98838C12.9207 2.33946 12.535 0.842833 10.7419 0.842833C9.5771 0.842833 8.09553 1.07738 6.7808 1.07738C5.51287 1.07738 4.4018 0.859625 3.88137 0.0027084C3.88137 0.0027084 3.90043 0.639708 3.89783 1.76854C3.7908 1.77071 3.6842 1.77342 3.58237 1.77342C2.9822 1.77342 2.483 1.72358 2.14673 1.59412C2.14673 1.59412 2.18183 2.55342 2.1684 4.29488L0 26ZM22.4272 2.78254C22.646 2.78254 22.8466 2.77604 23.0308 2.76358C23.0083 5.70646 23.1084 13.7459 24.5427 24.1486C24.277 24.0953 24.0121 24.0352 23.7484 23.9682C23.9183 23.8799 24.053 23.7597 24.144 23.5977C22.5 14.8926 22.1693 6.84504 22.1199 2.77713C22.2239 2.77983 22.3275 2.78254 22.4272 2.78254V2.78254ZM15.4371 2.22679C16.3172 2.22679 17.495 2.35625 18.7408 2.49329C19.6109 2.58917 20.4997 2.68558 21.3105 2.73975C21.3603 6.74538 21.6771 14.605 23.2202 23.1108C23.1036 23.1351 22.942 23.1541 22.7192 23.1541C21.8959 23.1541 20.7164 22.8925 19.5758 22.639C18.2914 22.354 16.9637 22.0588 15.8804 22.0588C15.0406 22.0588 14.3793 22.256 13.858 22.5577C13.8381 22.568 13.8151 22.5756 13.7965 22.5864L13.7934 3.62213C13.8086 3.35454 13.9594 2.22679 15.4371 2.22679V2.22679ZM4.7008 2.73975C5.51157 2.68558 6.39947 2.58917 7.26917 2.49329C8.51543 2.35679 9.69323 2.22679 10.5742 2.22679C12.0038 2.22679 12.1949 3.27112 12.217 3.64433L12.2131 22.5859C12.1788 22.5669 12.1381 22.5518 12.1021 22.5339C11.5873 22.2473 10.9434 22.0599 10.1283 22.0599C9.04497 22.0599 7.71723 22.3557 6.43327 22.6406C5.29187 22.8946 4.11277 23.1563 3.28943 23.1563C3.0667 23.1563 2.90463 23.1373 2.7898 23.1135C4.33333 14.6066 4.6501 6.74429 4.7008 2.73975V2.73975ZM2.98003 2.76358C3.16463 2.77604 3.36483 2.78254 3.58367 2.78254C3.68333 2.78254 3.78733 2.77983 3.89133 2.77767C3.8415 6.8445 3.51043 14.8942 1.8655 23.601C1.95607 23.7618 2.08953 23.8821 2.25723 23.9698C1.98813 24.037 1.72337 24.0982 1.46597 24.1491C2.9016 13.7459 3.00213 5.70646 2.98003 2.76358" fill="#300759"/>
<path d="M10.1509 3.07684C11.2917 3.07684 11.6678 3.29832 11.6718 3.30061L11.7776 3.18187L11.8857 3.0658C11.8417 3.03764 11.4193 2.78571 10.1629 2.78571C9.21725 2.78571 8.04976 2.99083 7.01387 3.17121C6.25896 3.30365 5.60497 3.4182 5.23063 3.4182L5.19995 3.71428C5.61208 3.71428 6.28519 3.59592 7.06277 3.45892C8.08533 3.27968 9.23859 3.07684 10.1509 3.07684" fill="#300759"/>
<path d="M10.1513 5.22582C11.2915 5.22582 11.6686 5.66834 11.6721 5.67273L11.7776 5.4372L11.8857 5.2046C11.8416 5.14536 11.4197 4.64285 10.1635 4.64285C9.21801 4.64285 8.05069 5.051 7.01501 5.41453C6.2596 5.67712 5.60577 5.90679 5.23177 5.90679L5.19995 6.5C5.61231 6.5 6.28489 6.26301 7.06295 5.99091C8.08469 5.63177 9.23936 5.22582 10.1513 5.22582" fill="#300759"/>
<path d="M10.1516 7.72003C11.2915 7.72003 11.6674 7.94049 11.6717 7.9433L11.7772 7.82516L11.8857 7.70949C11.8412 7.67995 11.4188 7.42856 10.1635 7.42856C9.21873 7.42856 8.05183 7.63284 7.01607 7.81426C6.26049 7.94611 5.60614 8.06108 5.23284 8.06108L5.19995 8.35713C5.61255 8.35713 6.28569 8.23899 7.06305 8.10257C8.08515 7.9222 9.23923 7.72003 10.1516 7.72003Z" fill="#300759"/>
<path d="M9.9593 9.86855C11.2254 9.86855 11.6435 10.3111 11.6486 10.3151L11.7658 10.0797L11.8857 9.84629C11.8369 9.78895 11.3677 9.28571 9.97371 9.28571C8.92378 9.28571 7.62648 9.69383 6.47565 10.0574C5.63589 10.3212 4.90958 10.5492 4.49342 10.5492L4.45715 11.1428C4.9147 11.1428 5.66425 10.9061 6.52819 10.6329C7.66461 10.2733 8.9461 9.86855 9.9593 9.86855" fill="#300759"/>
<path d="M9.95949 12.3624C11.2251 12.3624 11.6435 12.5838 11.6472 12.5861L11.7655 12.4679L11.8857 12.3514C11.8361 12.3226 11.3676 12.0714 9.97361 12.0714C8.92468 12.0714 7.62762 12.2753 6.47671 12.4566C5.63629 12.5883 4.91014 12.7032 4.49403 12.7032L4.45715 13C4.9147 13 5.66315 12.8816 6.52816 12.7443C7.66405 12.5647 8.94516 12.3624 9.95949 12.3624" fill="#300759"/>
<path d="M9.95996 14.5108C11.2254 14.5108 11.6433 14.9527 11.6473 14.9577L11.765 14.7218L11.8857 14.4891C11.8367 14.4313 11.3684 13.9286 9.97511 13.9286C8.92624 13.9286 7.62873 14.337 6.47827 14.6995C5.63747 14.9639 4.91075 15.1929 4.49503 15.1929L4.45715 15.7857C4.9152 15.7857 5.66465 15.5492 6.52906 15.2761C7.66527 14.9155 8.94718 14.5108 9.95996 14.5108" fill="#300759"/>
<path d="M9.96156 17.2955C11.2266 17.2955 11.6438 17.7385 11.6481 17.7432L11.7658 17.5069L11.8857 17.2742C11.8369 17.216 11.3687 16.7143 9.97551 16.7143C8.92711 16.7143 7.63024 17.1228 6.47897 17.4838C5.63894 17.748 4.91139 17.9777 4.49639 17.9777L4.45715 18.5714C4.91531 18.5714 5.66466 18.334 6.52953 18.0602C7.66642 17.7005 8.94847 17.2955 9.96156 17.2955Z" fill="#300759"/>
<path d="M9.76826 20.0825C11.1608 20.0825 11.6189 20.524 11.6236 20.5286L11.753 20.2922L11.8857 20.0603C11.8313 20.0024 11.3174 19.5 9.7856 19.5C8.63219 19.5 7.20542 19.908 5.93901 20.2706C5.01487 20.5354 4.21452 20.7627 3.75784 20.7627L3.71423 21.3571C4.21733 21.3571 5.0416 21.1207 5.9934 20.8474C7.24481 20.4877 8.65516 20.0825 9.76826 20.0825" fill="#300759"/>
<path d="M14.329 3.30061C14.3325 3.29832 14.7087 3.07684 15.8495 3.07684C16.7627 3.07684 17.9155 3.27968 18.9376 3.45892C19.7152 3.59592 20.3883 3.71428 20.8 3.71428L20.7693 3.4182C20.395 3.4182 19.741 3.30365 18.9861 3.17121C17.9511 2.99083 16.7831 2.78571 15.8375 2.78571C14.582 2.78571 14.1587 3.03764 14.1143 3.0658L14.2227 3.18187L14.329 3.30061" fill="#300759"/>
<path d="M15.8367 4.64285C14.5798 4.64285 14.1574 5.14555 14.1143 5.20483L14.2224 5.43752L14.3274 5.67314C14.3314 5.66948 14.708 5.22605 15.8489 5.22605C16.7609 5.22605 17.9149 5.63143 18.9367 5.99071C19.7145 6.26365 20.3876 6.5 20.8 6.5L20.7681 5.90656C20.395 5.90656 19.7406 5.67753 18.9851 5.4141C17.9497 5.05116 16.7823 4.64285 15.8367 4.64285" fill="#300759"/>
<path d="M15.8363 7.42856C14.5808 7.42856 14.1583 7.68005 14.1143 7.70959L14.2223 7.82531L14.3279 7.94349C14.3317 7.94103 14.7085 7.72014 15.8483 7.72014C16.7612 7.72014 17.9142 7.92239 18.9369 8.10248C19.7145 8.23895 20.3881 8.35713 20.8 8.35713L20.7679 8.06097C20.3941 8.06097 19.7401 7.94596 18.9839 7.81406C17.9493 7.63256 16.7813 7.42856 15.8363 7.42856" fill="#300759"/>
<path d="M16.0261 9.28571C14.6313 9.28571 14.1621 9.78846 14.1143 9.84649L14.2338 10.08L14.3514 10.3155C14.356 10.3115 14.7736 9.86876 16.0401 9.86876C17.0537 9.86876 18.3356 10.2737 19.4724 10.6327C20.3363 10.906 21.0848 11.1428 21.5428 11.1428L21.5052 10.5497C21.0895 10.5497 20.3632 10.3216 19.5235 10.0577C18.3732 9.69398 17.076 9.28571 16.0261 9.28571" fill="#300759"/>
<path d="M16.025 12.0714C14.6305 12.0714 14.163 12.3226 14.1143 12.3514L14.2344 12.4679L14.3515 12.5861C14.3565 12.5838 14.7735 12.3624 16.04 12.3624C17.0535 12.3624 18.3355 12.5647 19.4709 12.7443C20.3359 12.8816 21.0848 13 21.5428 13L21.5055 12.7032C21.0894 12.7032 20.3628 12.5883 19.5233 12.4566C18.3724 12.2753 17.0753 12.0714 16.025 12.0714" fill="#300759"/>
<path d="M16.025 13.9286C14.6316 13.9286 14.1637 14.4321 14.1143 14.4892L14.235 14.7221L14.3527 14.958C14.3562 14.9531 14.7742 14.511 16.0397 14.511C17.0521 14.511 18.3345 14.9158 19.4712 15.2759C20.3357 15.5491 21.0848 15.7857 21.5428 15.7857L21.5045 15.1927C21.0892 15.1927 20.3624 14.9636 19.5229 14.6991C18.3719 14.3371 17.0748 13.9286 16.025 13.9286" fill="#300759"/>
<path d="M16.0245 16.7143C14.6313 16.7143 14.1635 17.2167 14.1143 17.2743L14.2337 17.5072L14.3518 17.7435C14.3558 17.7388 14.7734 17.2957 16.0389 17.2957C17.0515 17.2957 18.334 17.7014 19.4704 18.0601C20.3353 18.3339 21.0851 18.5714 21.5428 18.5714L21.5032 17.9775C21.0877 17.9775 20.3606 17.7477 19.5215 17.4834C18.3697 17.1229 17.0729 16.7143 16.0245 16.7143Z" fill="#300759"/>
<path d="M16.2147 19.5C14.6825 19.5 14.1682 20.0029 14.1143 20.0603L14.246 20.2922L14.3754 20.5286C14.3806 20.524 14.8396 20.0825 16.2306 20.0825C17.345 20.0825 18.7553 20.4877 20.0057 20.8474C20.957 21.1207 21.7817 21.3571 22.2857 21.3571L22.2411 20.7627C21.7845 20.7627 20.9842 20.5354 20.0606 20.2706C18.7942 19.908 17.3671 19.5 16.2147 19.5Z" fill="#300759"/>
</svg>
